HIERARCHY
ROOT Hips
{
	OFFSET 51.942699 6.659931 55.974800
	CHANNELS 6 Xposition Yposition Zposition Xrotation Yrotation Zrotation
	JOINT spine
	{
		OFFSET 0.000000 -0.393701 6.846371
		CHANNELS 3 Xrotation Yrotation Zrotation
		JOINT spine1
		{
			OFFSET 0.000000 -0.000002 9.496212
			CHANNELS 3 Xrotation Yrotation Zrotation
			JOINT spine2
			{
				OFFSET 0.000000 -0.000001 9.099091
				CHANNELS 3 Xrotation Yrotation Zrotation
				JOINT Neck
				{
					OFFSET 0.000000 -1.113784 23.361198
					CHANNELS 3 Xrotation Yrotation Zrotation
					JOINT Head
					{
						OFFSET 0.000000 -0.000001 7.058022
						CHANNELS 3 Xrotation Yrotation Zrotation
						End Site
						{
							OFFSET 0.000000 5.634187 17.084396
						}
					}
				}
				JOINT RightShoulder
				{
					OFFSET -3.831360 0.533490 9.826309
					CHANNELS 3 Xrotation Yrotation Zrotation
					JOINT RightArm
					{
						OFFSET 0.000000 -0.000002 12.888100
						CHANNELS 3 Xrotation Yrotation Zrotation
						JOINT RightArmRoll
						{
							OFFSET 0.000000 -0.000001 6.506172
							CHANNELS 3 Xrotation Yrotation Zrotation
							JOINT RightForeArm
							{
								OFFSET 0.000000 -0.000003 18.950104
								CHANNELS 3 Xrotation Yrotation Zrotation
								JOINT RightForeArmRoll
								{
									OFFSET 0.000000 -0.000001 7.300919
									CHANNELS 3 Xrotation Yrotation Zrotation
									JOINT RightHand
									{
										OFFSET 0.000000 -0.000002 14.651398
										CHANNELS 3 Xrotation Yrotation Zrotation
										End Site
										{
											OFFSET 0.000000 0.000000 0.100006
										}
									}
								}
							}
						}
					}
				}
				JOINT LeftShoulder
				{
					OFFSET 3.831360 0.533490 9.826309
					CHANNELS 3 Xrotation Yrotation Zrotation
					JOINT LeftArm
					{
						OFFSET 0.000000 -0.000002 12.888100
						CHANNELS 3 Xrotation Yrotation Zrotation
						JOINT LeftArmRoll
						{
							OFFSET 0.000000 -0.000001 6.506172
							CHANNELS 3 Xrotation Yrotation Zrotation
							JOINT LeftForeArm
							{
								OFFSET 0.000000 -0.000003 18.950104
								CHANNELS 3 Xrotation Yrotation Zrotation
								JOINT LeftForeArmRoll
								{
									OFFSET 0.000000 -0.000001 7.300919
									CHANNELS 3 Xrotation Yrotation Zrotation
									JOINT LeftHand
									{
										OFFSET 0.000000 -0.000002 14.651398
										CHANNELS 3 Xrotation Yrotation Zrotation
										End Site
										{
											OFFSET 0.000000 0.000000 0.100006
										}
									}
								}
							}
						}
					}
				}
			}
		}
	}
	JOINT RightUpLeg
	{
		OFFSET -6.068371 0.933477 -1.112782
		CHANNELS 3 Xrotation Yrotation Zrotation
		JOINT RightUpLegRoll
		{
			OFFSET 0.000000 -0.000003 17.179600
			CHANNELS 3 Xrotation Yrotation Zrotation
			JOINT RightLeg
			{
				OFFSET 0.000000 0.000004 -21.274300
				CHANNELS 3 Xrotation Yrotation Zrotation
				JOINT RightLegRoll
				{
					OFFSET 0.000000 -0.000004 21.343903
					CHANNELS 3 Xrotation Yrotation Zrotation
					JOINT RightFoot
					{
						OFFSET 0.000000 -0.000003 17.765198
						CHANNELS 3 Xrotation Yrotation Zrotation
						JOINT RightToeBase
						{
							OFFSET 0.000000 -0.000002 14.850800
							CHANNELS 3 Xrotation Yrotation Zrotation
							End Site
							{
								OFFSET 0.006294 0.829003 7.192139
							}
						}
					}
				}
			}
		}
	}
	JOINT LeftUpLeg
	{
		OFFSET 6.068371 0.933477 -1.112782
		CHANNELS 3 Xrotation Yrotation Zrotation
		JOINT LeftUpLegRoll
		{
			OFFSET 0.000000 -0.000003 17.179699
			CHANNELS 3 Xrotation Yrotation Zrotation
			JOINT LeftLeg
			{
				OFFSET 0.000000 -0.000003 21.274200
				CHANNELS 3 Xrotation Yrotation Zrotation
				JOINT LeftLegRoll
				{
					OFFSET 0.000000 -0.000003 21.541199
					CHANNELS 3 Xrotation Yrotation Zrotation
					JOINT LeftFoot
					{
						OFFSET 0.000000 -0.000003 17.567902
						CHANNELS 3 Xrotation Yrotation Zrotation
						JOINT LeftToeBase
						{
							OFFSET 0.000000 -0.000002 14.850800
							CHANNELS 3 Xrotation Yrotation Zrotation
							End Site
							{
								OFFSET -0.028210 0.829004 7.192123
							}
						}
					}
				}
			}
		}
	}
}
MOTION
Frames: 13
Frame Time: 0.041667
50.129303 -19.288416 86.520294 4.608381 -0.792973 -2.677364 -1.688663 -1.109878 0.858022 0.642449 -2.236669 1.702764 2.287742 -2.216085 1.729489 -1.493557 10.415836 10.026461 8.884344 -3.663824 8.638343 -8.143736 -47.959751 -8.746303 126.859494 -17.220292 106.125143 -0.000001 -0.000002 -0.000002 18.069359 -25.190617 5.709303 0.000021 0.000001 -3.008662 -5.000261 -7.999912 0.000073 -30.784769 73.376101 35.285358 110.456385 28.137673 -123.917650 0.000007 0.000014 0.000011 0.132479 17.494457 -0.533945 0.000007 -0.000023 3.011861 -5.000178 7.999004 -0.000129 -21.963035 -175.523690 -1.735748 179.999991 -0.000005 -0.829002 158.115642 -3.649445 -1.307608 0.000001 0.000001 0.266171 68.917824 6.419435 3.342943 25.456950 -7.355615 0.000011 -20.044583 176.458702 1.418466 -0.000005 -0.000004 -0.703296 -22.477198 1.586854 1.172442 -0.000005 -0.000004 -0.299660 71.224605 -5.624397 -5.465300 25.456959 7.345851 -0.000820 
50.129704 -19.280313 86.520393 4.629087 -0.794981 -2.667044 -1.688234 -1.108939 0.858201 0.643455 -2.235050 1.702655 2.288751 -2.214454 1.729374 -1.478045 10.416407 10.023400 8.891261 -3.647027 8.634015 -8.143524 -47.971277 -8.746967 126.864507 -17.317943 106.196997 0.000003 -0.000001 -0.000001 18.000395 -25.199262 5.695804 0.000021 0.000001 -3.008661 -5.000258 -7.999908 0.000073 -30.803583 73.376333 35.305832 110.424023 28.094330 -123.998082 0.000008 0.000014 0.000011 0.132476 17.432962 -0.485431 0.000005 -0.000023 3.017490 -5.000183 7.999003 -0.000131 -21.985165 -175.518827 -1.727406 179.999991 -0.000005 -0.829002 158.120136 -3.661635 -1.307159 0.000002 0.000001 0.266171 68.912231 6.423936 3.332507 25.456955 -7.355615 0.000011 -20.069485 176.461147 1.425550 -0.000006 -0.000004 -0.703316 -22.470482 1.586025 1.172442 -0.000005 -0.000004 -0.299672 71.213929 -5.622922 -5.466896 25.456959 7.345851 -0.000819 
50.112206 -19.283913 86.525391 4.649859 -0.797053 -2.656815 -1.687842 -1.107999 0.858371 0.644368 -2.233429 1.702562 2.289658 -2.212834 1.729254 -1.462489 10.416779 10.020377 8.898014 -3.629659 8.629699 -8.143146 -47.982714 -8.747429 126.871119 -17.415671 106.269172 -0.000001 -0.000001 -0.000001 17.934909 -25.207353 5.682993 0.000023 0.000007 -3.008659 -5.000258 -7.999906 0.000074 -30.823407 73.376736 35.327391 110.391054 28.049381 -124.081547 0.000008 0.000014 0.000010 0.132474 17.368859 -0.436420 0.000005 -0.000022 3.023168 -5.000181 7.999002 -0.000128 -22.007500 -175.513950 -1.718726 179.999991 -0.000004 -0.829002 158.124617 -3.674753 -1.308076 0.000002 0.000001 0.266171 68.906575 6.428647 3.321617 25.456950 -7.355615 0.000011 -20.094579 176.463593 1.432734 -0.000005 -0.000005 -0.703345 -22.463770 1.585186 1.172438 -0.000005 -0.000004 -0.299689 71.203247 -5.621448 -5.468389 25.456959 7.345853 -0.000820 
50.115799 -19.268612 86.521889 4.670672 -0.799167 -2.646651 -1.687494 -1.107060 0.858534 0.645214 -2.231799 1.702466 2.290506 -2.211204 1.729131 -1.446902 10.416846 10.017368 8.904650 -3.611896 8.625375 -8.142681 -47.994261 -8.747784 126.878782 -17.513961 106.340930 0.000000 -0.000003 -0.000003 17.871673 -25.214839 5.670505 0.000021 0.000001 -3.008660 -5.000257 -7.999906 0.000073 -30.843908 73.377248 35.349692 110.357265 28.003487 -124.166446 0.000003 0.000014 0.000011 0.132470 17.303058 -0.387069 0.000004 -0.000022 3.028890 -5.000180 7.999004 -0.000128 -22.029937 -175.509101 -1.709807 179.999991 -0.000005 -0.829002 158.128961 -3.688793 -1.308374 0.000002 0.000001 0.266171 68.900974 6.433465 3.310442 25.456950 -7.355616 0.000011 -20.119661 176.466980 1.439629 -0.000004 -0.000004 -0.703381 -22.457157 1.584347 1.172437 -0.000005 -0.000004 -0.299711 71.192660 -5.619908 -5.469968 25.456957 7.345851 -0.000820 
50.120605 -19.259214 86.521301 4.691511 -0.801301 -2.636523 -1.687164 -1.106121 0.858694 0.646021 -2.230159 1.702380 2.291304 -2.209573 1.729027 -1.431305 10.416820 10.014384 8.911233 -3.593899 8.621045 -8.142140 -48.005810 -8.748043 126.887266 -17.612041 106.413077 0.000000 -0.000001 -0.000003 17.809954 -25.222109 5.658338 0.000021 0.000002 -3.008662 -5.000256 -7.999909 0.000074 -30.864795 73.377822 35.372392 110.323066 27.957131 -124.252343 0.000006 0.000014 0.000011 0.132479 17.236261 -0.337517 0.000005 -0.000022 3.034620 -5.000180 7.999003 -0.000128 -22.052470 -175.504238 -1.700758 179.999991 -0.000005 -0.828005 158.133223 -3.701907 -1.308303 0.000001 0.000001 0.266171 68.895380 6.438359 3.299079 25.456950 -7.355614 0.000011 -20.144861 176.469412 1.446911 -0.000007 -0.000004 -0.703421 -22.450543 1.583507 1.172436 -0.000005 -0.000004 -0.299735 71.182073 -5.618362 -5.471546 25.456960 7.345851 -0.000820 
50.117603 -19.249115 86.520096 4.712357 -0.803435 -2.626404 -1.686832 -1.105181 0.858852 0.646819 -2.228529 1.702293 2.292102 -2.207944 1.728913 -1.415698 10.416789 10.011392 8.917794 -3.575842 8.616716 -8.141588 -48.017268 -8.748271 126.896377 -17.709837 106.485955 0.000001 -0.000001 -0.000003 17.748458 -25.229320 5.646178 0.000021 0.000003 -3.008660 -5.000254 -7.999910 0.000074 -30.885764 73.378375 35.395205 110.288820 27.910687 -124.338731 0.000004 0.000015 0.000010 0.132482 17.169159 -0.287919 0.000005 -0.000022 3.040362 -5.000183 7.999001 -0.000129 -22.074905 -175.499388 -1.691663 179.999991 -0.000004 -0.828005 158.137567 -3.715949 -1.308597 0.000001 0.000001 0.266171 68.889793 6.443290 3.287631 25.456950 -7.355614 0.000011 -20.170034 176.472800 1.453854 -0.000005 -0.000005 -0.703461 -22.443935 1.582659 1.172432 -0.000005 -0.000004 -0.299760 71.171391 -5.616840 -5.473129 25.456957 7.345851 -0.000819 
50.111004 -19.247616 86.517090 4.733190 -0.805547 -2.616254 -1.686492 -1.104242 0.859012 0.647636 -2.226898 1.702206 2.292921 -2.206315 1.728799 -1.400100 10.416858 10.008400 8.924392 -3.557907 8.612378 -8.141062 -48.028814 -8.748559 126.905243 -17.808390 106.557884 -0.000001 -0.000003 -0.000004 17.686297 -25.236593 5.633877 0.000023 0.000005 -3.008658 -5.000259 -7.999906 0.000073 -30.906623 73.378949 35.417874 110.254362 27.864906 -124.424026 0.000007 0.000013 0.000011 0.132477 17.102558 -0.238417 0.000006 -0.000021 3.046089 -5.000181 7.999004 -0.000129 -22.097441 -175.494539 -1.682644 179.999991 -0.000005 -0.828005 158.141952 -3.729066 -1.308516 0.000001 0.000001 0.266171 68.884118 6.448211 3.276280 25.456950 -7.355614 0.000011 -20.195237 176.475245 1.461129 -0.000005 -0.000005 -0.703500 -22.437315 1.581818 1.172431 -0.000005 -0.000004 -0.299783 71.160811 -5.615319 -5.474710 25.456959 7.345852 -0.000820 
50.110703 -19.238518 86.517502 4.753993 -0.807618 -2.606068 -1.686121 -1.103302 0.859177 0.648501 -2.225268 1.702111 2.293789 -2.204684 1.728677 -1.384525 10.417024 10.005396 8.931076 -3.540256 8.608033 -8.140629 -48.040358 -8.748935 126.913944 -17.906367 106.630612 0.000001 0.000000 -0.000003 17.622414 -25.244342 5.621270 0.000022 0.000002 -3.008661 -5.000256 -7.999909 0.000074 -30.927069 73.379482 35.440096 110.220559 27.819839 -124.508816 0.000004 0.000013 0.000011 0.132475 17.037261 -0.189165 0.000004 -0.000023 3.051791 -5.000179 7.999004 -0.000128 -22.119778 -175.489690 -1.673787 179.999991 -0.000005 -0.826994 158.146296 -3.743110 -1.309802 0.000001 0.000001 0.266171 68.878585 6.452975 3.265192 25.456950 -7.355615 0.000011 -20.220312 176.478633 1.468006 -0.000005 -0.000004 -0.703533 -22.430604 1.580981 1.172429 -0.000005 -0.000004 -0.299804 71.150231 -5.613762 -5.476383 25.456959 7.345851 -0.000820 
50.101803 -19.246216 86.523994 4.774747 -0.809625 -2.595806 -1.685721 -1.102363 0.859350 0.649441 -2.223648 1.702009 2.294727 -2.203054 1.728558 -1.368980 10.417388 10.002364 8.937880 -3.523067 8.603696 -8.140295 -48.051788 -8.749460 126.922209 -18.003632 106.704255 0.000001 -0.000001 -0.000002 17.555815 -25.252581 5.608146 0.000021 0.000003 -3.008661 -5.000258 -7.999910 0.000071 -30.946549 73.379803 35.461307 110.186832 27.776629 -124.590451 0.000011 0.000013 0.000010 0.132473 16.973963 -0.140304 0.000003 -0.000021 3.057460 -5.000185 7.999001 -0.000129 -22.142109 -175.484826 -1.665215 179.999991 -0.000005 -0.826994 158.150776 -3.755293 -1.309334 0.000002 0.000001 0.266171 68.872936 6.457659 3.254399 25.456950 -7.355614 0.000011 -20.245309 176.481078 1.475158 -0.000007 -0.000004 -0.703560 -22.423994 1.580141 1.172428 -0.000006 -0.000004 -0.299819 71.139562 -5.612288 -5.477875 25.456957 7.345851 -0.000819 
50.102203 -19.237514 86.522591 4.795432 -0.811547 -2.585440 -1.685269 -1.101424 0.859534 0.650486 -2.222027 1.701911 2.295775 -2.201434 1.728434 -1.353487 10.418154 9.999286 8.944855 -3.506512 8.599332 -8.140145 -48.063314 -8.750194 126.929230 -18.101285 106.777317 0.000002 -0.000003 -0.000006 17.485428 -25.261637 5.594324 0.000024 0.000005 -3.008660 -5.000259 -7.999908 0.000074 -30.964987 73.379967 35.481374 110.154525 27.734989 -124.670528 0.000009 0.000014 0.000011 0.132472 16.913358 -0.091985 0.000001 -0.000021 3.063070 -5.000182 7.999004 -0.000129 -22.164148 -175.479963 -1.657013 179.999991 -0.000004 -0.826995 158.155257 -3.768416 -1.309241 0.000002 0.000001 0.266171 68.867418 6.462071 3.244145 25.456950 -7.355615 0.000011 -20.270188 176.484452 1.481861 -0.000004 -0.000005 -0.703575 -22.417181 1.579321 1.172429 -0.000005 -0.000004 -0.299829 71.128900 -5.610846 -5.479372 25.456960 7.345851 -0.000819 
50.108902 -19.228611 86.521294 4.816037 -0.813363 -2.574933 -1.684751 -1.100494 0.859729 0.651664 -2.220407 1.701799 2.296943 -2.199823 1.728294 -1.338048 10.419421 9.996174 8.952063 -3.490755 8.594979 -8.140201 -48.074727 -8.751182 126.934872 -18.198559 106.850831 -0.000001 -0.000001 -0.000001 17.410258 -25.271633 5.579593 0.000021 0.000006 -3.008657 -5.000257 -7.999912 0.000073 -30.982004 73.379905 35.499918 110.122928 27.695915 -124.746384 0.000006 0.000013 0.000010 0.132481 16.856260 -0.044352 0.000003 -0.000021 3.068610 -5.000188 7.999003 -0.000128 -22.185990 -175.475100 -1.649287 179.999991 -0.000005 -0.825997 158.159833 -3.780617 -1.309764 0.000001 0.000001 0.266171 68.861837 6.466267 3.234557 25.456950 -7.355615 0.000010 -20.294992 176.486897 1.488791 -0.000007 -0.000005 -0.703578 -22.410267 1.578502 1.172428 -0.000006 -0.000004 -0.299830 71.118143 -5.609427 -5.481080 25.456957 7.345852 -0.000820 
50.104305 -19.226313 86.522591 4.836539 -0.815052 -2.564277 -1.684159 -1.099555 0.859941 0.653004 -2.218807 1.701672 2.298282 -2.198222 1.728151 -1.322692 10.421083 9.993003 8.959538 -3.475974 8.590607 -8.140511 -48.086215 -8.752513 126.938861 -18.295326 106.924795 0.000002 -0.000003 -0.000003 17.329242 -25.282874 5.563772 0.000020 0.000004 -3.008658 -5.000257 -7.999909 0.000074 -30.997311 73.379557 35.516611 110.092534 27.659961 -124.817513 0.000009 0.000014 0.000011 0.132479 16.803561 0.002440 0.000004 -0.000020 3.074060 -5.000187 7.999006 -0.000129 -22.207590 -175.471166 -1.641770 179.999991 -0.000005 -0.825997 158.164546 -3.791881 -1.309902 0.000001 0.000001 0.266171 68.856353 6.470084 3.225793 25.456948 -7.355616 0.000011 -20.319584 176.489329 1.495561 -0.000005 -0.000004 -0.703564 -22.403357 1.577693 1.172431 -0.000006 -0.000004 -0.299822 71.107317 -5.608097 -5.482702 25.456959 7.345851 -0.000819 
50.105904 -19.205717 86.517090 4.856924 -0.816592 -2.553424 -1.683467 -1.098616 0.860171 0.654532 -2.217206 1.701533 2.299810 -2.196621 1.727996 -1.307420 10.423543 9.989764 8.967331 -3.462345 8.586238 -8.141134 -48.097591 -8.754206 126.940527 -18.392041 106.998547 0.000002 0.000001 -0.000002 17.241281 -25.295486 5.546600 0.000019 0.000005 -3.008660 -5.000256 -7.999909 0.000073 -31.010589 73.378853 35.531109 110.064025 27.627021 -124.884326 0.000009 0.000014 0.000010 0.132475 16.755760 0.048250 0.000003 -0.000022 3.079422 -5.000185 7.999004 -0.000130 -22.228823 -175.466303 -1.635310 179.999991 -0.000005 -0.825997 158.169395 -3.802225 -1.310670 0.000002 0.000001 0.266171 68.850861 6.473516 3.217956 25.456950 -7.355613 0.000010 -20.344004 176.490818 1.502502 -0.000005 -0.000005 -0.703531 -22.396146 1.576906 1.172431 -0.000005 -0.000004 -0.299802 71.096498 -5.606790 -5.484328 25.456955 7.345851 -0.000819 
